<?xml version="1.0" encoding="UTF-8" standalone="no"?>
<svg
   data-name="Layer 1"
   width="888"
   height="594.64886"
   viewBox="0 0 888 594.64886"
   version="1.1"
   id="svg66"
   sodipodi:docname="icon.svg"
   inkscape:version="1.2.1 (9c6d41e410, 2022-07-14)"
   xmlns:inkscape="http://www.inkscape.org/namespaces/inkscape"
   xmlns:sodipodi="http://sodipodi.sourceforge.net/DTD/sodipodi-0.dtd"
   xmlns="http://www.w3.org/2000/svg"
   xmlns:svg="http://www.w3.org/2000/svg"
   xmlns:rdf="http://www.w3.org/1999/02/22-rdf-syntax-ns#"
   xmlns:cc="http://creativecommons.org/ns#"
   xmlns:dc="http://purl.org/dc/elements/1.1/">
  <defs
     id="defs70" />
  <sodipodi:namedview
     id="namedview68"
     pagecolor="#ffffff"
     bordercolor="#000000"
     borderopacity="0.25"
     inkscape:showpageshadow="2"
     inkscape:pageopacity="0.0"
     inkscape:pagecheckerboard="0"
     inkscape:deskcolor="#d1d1d1"
     showgrid="false"
     inkscape:zoom="1.0178837"
     inkscape:cx="395.42827"
     inkscape:cy="348.76282"
     inkscape:window-width="1920"
     inkscape:window-height="1015"
     inkscape:window-x="0"
     inkscape:window-y="37"
     inkscape:window-maximized="1"
     inkscape:current-layer="svg66" />
  <title
     id="title2">conceptual_idea</title>
  <path
     d="m 10.546351,343.69766 c 25.6704,-0.0744 49.90512,9.04894 71.042,23.23534 22.185999,14.89048 40.936899,34.61892 57.408319,55.51232 18.20214,23.08876 33.79842,48.07132 50.5406,72.20358 15.46162,22.28646 32.02906,43.95242 51.95626,62.4704 18.85296,17.5197 40.68748,32.2497 65.31274,40.23822 3,0.9732 6.0335,1.83314 9.09232,2.60078 3.44756,0.86522 4.91832,-4.45894 1.468,-5.32484 -25.288,-6.34634 -47.89816,-20.09226 -67.33546,-37.22436 -20.2825,-17.87704 -37.14526,-39.09062 -52.6475,-61.13916 -16.87864,-24.00618 -32.41,-48.96524 -50.25664,-72.28524 -16.51248,-21.57678 -35.08178,-41.86414 -57.138459,-57.89676 -20.46762,-14.87754 -44.17626,-25.47422 -69.59236,-27.54246 -3.27736,-0.2667 -6.562,-0.37946 -9.8499,-0.37 a 2.76272,2.76272 0 0 0 0,5.52212 z"
     fill="#03f91f"
     id="path36"
     style="stroke-width:2" />
  <path
     d="M 13.414891,598.6392 C 58.571151,552.96384 120.30273,531.37292 181.60517,517.36688 245.72175,502.7179 311.87021,494.85362 372.78929,468.71926 a 266.26736,266.26736 0 0 0 78.8632,-50.83624 261.6769,261.6769 0 0 0 52.8367,-71.27518 A 270.1646,270.1646 0 0 0 528.69245,171.82548 298.5861,298.5861 0 0 0 440.66791,14.342167 Q 432.46489,6.6311672 423.68205,-0.42275282 c -2.74272,-2.20883998 -6.674,1.67456002 -3.90474,3.90472002 a 295.02362,295.02362 0 0 1 98.82438,149.8054528 264.5697,264.5697 0 0 1 -11.88452,175.6433 261.55122,261.55122 0 0 1 -47.46476,73.37722 250.86334,250.86334 0 0 1 -73.77978,54.52158 c -59.09224,29.17528 -125.2346,38.20644 -189.03544,51.64132 -60.15642,12.66742 -121.519359,30.7368 -169.750279,70.53882 A 230.24462,230.24462 0 0 0 9.5101714,594.73448 c -2.50102,2.52978 1.4014196,6.43682 3.9047196,3.90472 z"
     fill="#03f91f"
     id="path38"
     style="stroke-width:2" />
  <path
     d="m 10.027371,252.86298 a 358.21876,358.21876 0 0 1 210.494999,7.20918 c 19.71312,6.76072 39.93272,14.61826 56.42446,27.68978 14.18746,11.24512 26.64524,28.268 23.10106,47.38122 -3.26708,17.6188 -19.4734,31.53584 -36.91576,34.08232 -17.98954,2.62636 -34.38044,-8.32088 -42.63188,-23.8338 a 45.98644,45.98644 0 0 1 3.33496,-49.392 c 10.4284,-14.046 27.76632,-22.06728 44.80496,-24.2912 19.47702,-2.54218 38.63332,3.19884 55.48,12.79838 38.07502,21.69574 62.38934,59.51974 94.36528,88.35344 a 158.62872,158.62872 0 0 0 52.94544,32.60566 164.44358,164.44358 0 0 0 59.0797,8.93496 c 42.07668,-1.0714 82.42356,-16.27124 116.79988,-40.11472 34.48326,-23.91764 62.96466,-55.32 87.90118,-88.83368 13.334,-17.92044 24.92332,-37.17576 38.87698,-54.6231 13.73502,-17.174 30.73068,-32.44188 52.4633,-38.19112 a 57.90366,57.90366 0 0 1 30.2532,-0.1672 2.76342,2.76342 0 0 0 1.468,-5.32486 c -21.12982,-5.76178 -43.34214,0.98242 -60.86016,13.2796 -18.73836,13.15384 -32.1657,32.2193 -44.90378,50.8912 -25.4494,37.3046 -52.85698,73.45684 -87.64456,102.63988 -34.73178,29.13622 -76.53098,50.01468 -122.09724,54.19842 a 165.76462,165.76462 0 0 1 -64.77686,-6.31148 c -21.91326,-6.88412 -40.91544,-19.31764 -57.71218,-34.816 -33.002,-30.45086 -58.6713,-70.42098 -99.97616,-90.80386 -17.40974,-8.59126 -36.46214,-12.71312 -55.7552,-9.442 -16.98732,2.8802 -33.69562,11.25656 -44.40534,25.01708 a 50.86688,50.86688 0 0 0 -7.467,49.60382 c 6.1014,16.01986 19.7157,29.85578 37.005,33.01038 17.4514,3.18418 35.6844,-4.86312 46.58144,-18.56116 a 44.72874,44.72874 0 0 0 4.265,-49.1655 c -8.96346,-17.327 -26.4511,-29.30678 -43.4849,-37.76076 a 324.56948,324.56948 0 0 0 -66.9823,-23.5416 365.36538,365.36538 0 0 0 -144.942879,-5.70698 373.87026,373.87026 0 0 0 -36.5566996,7.86076 2.76342,2.76342 0 0 0 1.4679996,5.32486 z"
     fill="#03f91f"
     id="path40"
     style="stroke-width:2" />
  <path
     d="m 586.16157,601.06336 c 19.53728,-26.2361 39.51366,-54.06474 47.94726,-86.16296 a 103.5115,103.5115 0 0 0 1.79968,-47.00178 101.39068,101.39068 0 0 0 -16.69526,-37.76434 c -16.60458,-23.5855 -41.0853,-41.11356 -67.13554,-52.94634 -32.26084,-14.65384 -67.05078,-22.16774 -100.722,-32.73446 -31.03716,-9.74 -62.85874,-22.4492 -86.044,-46.122 -21.906,-22.36662 -34.31778,-56.03284 -22.09984,-86.3141 11.08588,-27.47554 38.1024,-45.69614 65.07162,-55.31528 33.066,-11.79368 68.48098,-13.91672 102.176,-23.264 28.1697,-7.81449 56.99836,-21.13893 74.44018,-45.604213 14.78116,-20.73322 19.526,-50.632 7.7108,-73.8052 A 52.124,52.124 0 0 0 581.16569,-0.86757282 c -2.628,-2.38159998 -6.54484,1.51212 -3.90472,3.90472002 19.92416,18.0563398 20.16106,48.9489998 8.93558,71.8173198 -13.18038,26.850803 -41.63872,42.146003 -69.03074,50.833583 -32.60322,10.34037 -67.10472,12.54745 -99.86556,22.27639 -28.0004,8.31526 -55.39104,23.224 -71.86836,48.14154 a 74.66,74.66 0 0 0 -12.637,40.28726 88.21422,88.21422 0 0 0 11.8983,43.754 c 15.57704,27.65656 43.34078,45.54714 71.9145,57.61952 60.074,25.3812 131.34018,29.2571 180.83374,75.7921 21.2545,19.984 35.6869,46.5264 34.85354,76.2587 -0.91916,32.7942 -18.45,62.63096 -36.6835,88.83488 -4.61418,6.63116 -9.39344,13.1449 -14.21814,19.62386 -2.12372,2.85188 2.66748,5.608 4.76818,2.78712 z"
     fill="#03f91f"
     id="path42"
     style="stroke-width:2" />
  <path
     d="m 135.16067,4.6560472 a 58.43846,58.43846 0 0 1 24.00706,48.3927798 57.7465,57.7465 0 0 1 -27.30096,47.272823 c -15.33546,9.052 -36.889599,10.19106 -49.100899,-4.600803 a 30.18942,30.18942 0 0 1 -7.0213,-21.55478 23.66352,23.66352 0 0 1 12.2231,-18.09444 c 15.491019,-8.83868 34.057759,-3.635 48.373479,4.83414 8.861,5.24214 16.96924,11.61926 25.44164,17.44288 a 145.38182,145.38182 0 0 0 25.798,14.25034 c 36.0686,15.235403 78.38944,15.416583 113.94492,-1.4243 a 135.65932,135.65932 0 0 0 69.452,-77.52128 123.48952,123.48952 0 0 0 3.59632,-12.70463982 c 0.7863,-3.46017998 -4.53642,-4.93751998 -5.32486,-1.468 C 360.95195,35.992767 335.60243,67.565327 302.38695,84.607547 c -36.20492,18.576003 -80.90586,18.056443 -117.5,0.78276 a 172.74494,172.74494 0 0 1 -26.71618,-16.32344 c -8.63224,-6.1864 -17.24046,-12.57472 -26.89012,-17.1158 -15.16852,-7.13826 -35.022439,-9.14716 -49.246939,1.41044 a 28.97672,28.97672 0 0 0 -11.81138,20.80456 35.09176,35.09176 0 0 0 7.068,23.45242 c 11.83148,15.959883 33.129839,18.220003 50.599619,10.851443 18.37422,-7.75 31.61174,-25.297403 35.54048,-44.689243 A 63.3774,63.3774 0 0 0 137.94769,-0.11215282 c -2.88982,-2.07799998 -5.64968,2.70982002 -2.78712,4.76820002 z"
     fill="#03f91f"
     id="path44"
     style="stroke-width:2" />
  <path
     d="m 720.78177,600.00188 a 184.38458,184.38458 0 0 1 34.20906,-73.16 193.40382,193.40382 0 0 1 61.5771,-52.43444 178.50154,178.50154 0 0 1 42.6956,-16.32022 c 3.45338,-0.83172 1.9911,-6.158 -1.468,-5.32486 a 189.64318,189.64318 0 0 0 -74.1835,36.97018 198.13916,198.13916 0 0 0 -52.33,64.3984 184.27262,184.27262 0 0 0 -15.82502,44.40294 c -0.74648,3.46514 4.57564,4.9458 5.32486,1.468 z"
     fill="#03f91f"
     id="path46"
     style="stroke-width:2" />
  <path
     d="m 691.46147,-0.04873282 c -11.77344,0.1186 -21.70218,8.26786002 -26.52414,18.65835982 -5.47212,11.79146 -3.97532,24.7676 1.89036,36.12842 13.684,26.50344 43.5625,35.896 65.07648,54.220603 9.98158,8.50178 18.68134,19.32009 20.9718,32.55799 2.23264,12.90384 -2.376,26.2022 -9.926,36.586 -8.24376,11.338 -20.67546,19.13298 -33.62634,24.04906 a 128.86326,128.86326 0 0 1 -41.63044,8.34622 c -13.75784,0.38978 -28.3044,-2.0141 -39.698,-10.22144 a 41.98214,41.98214 0 0 1 -17.25468,-29.02858 28.19934,28.19934 0 0 1 12.754,-26.8372 41.08384,41.08384 0 0 1 29.5635,-4.79756 c 25.18,4.976 38.22354,29.9618 43.79156,52.8664 7.09014,29.166 4.274,60.17242 15.17894,88.51286 a 117.25358,117.25358 0 0 0 48.16764,57.65718 c 25.15388,15.30044 52.2362,20.25272 80.77896,12.77876 a 118.50718,118.50718 0 0 0 21.1074,-7.85232 c 3.2041,-1.53368 0.406,-6.2966 -2.78712,-4.76818 -28.37362,13.5814 -57.404,14.01512 -85.9586,0.63168 a 111.66922,111.66922 0 0 1 -53.57498,-54.20418 c -12.92,-28.11906 -10.3513,-59.69222 -16.50156,-89.39366 -4.95036,-23.90678 -16.97442,-50.5552 -41.53704,-59.54422 -19.76588,-7.2336 -46.25726,-1.61866 -54.48552,19.66686 -4.3012,11.12666 -1.81254,23.84924 4.0956,33.894 a 51.722,51.722 0 0 0 29.52736,22.78826 c 13.85298,4.4026 28.80086,4.03364 43.0095,1.7929 a 120.94516,120.94516 0 0 0 40.82354,-13.4114 68.9088,68.9088 0 0 0 28.39048,-29.02814 c 5.90126,-12.0302 7.80038,-26.03134 3.31344,-38.85136 -9.91358,-28.32491 -39.8952,-40.020253 -62.27778,-56.397993 -11.028,-8.06934 -21.3802,-18.6688 -25.48932,-32.02516 a 31.90528,31.90528 0 0 1 8.0807,-33.12862 21.953,21.953 0 0 1 14.75036,-6.1234998 2.76272,2.76272 0 0 0 0,-5.52212002 z"
     fill="#03f91f"
     id="path48"
     style="stroke-width:2" />
  <circle
     cx="580.86639"
     cy="397.60065"
     r="106.76086"
     fill="#03f91f"
     id="circle50"
     style="stroke-width:2" />
  <circle
     cx="608.47699"
     cy="115.97288"
     r="42.336201"
     fill="#03f91f"
     id="circle52"
     style="stroke-width:2" />
  <circle
     cx="91.238998"
     cy="147.26488"
     r="42.336201"
     fill="#03f91f"
     id="circle54"
     style="stroke-width:2" />
  <metadata
     id="metadata319">
    <rdf:RDF>
      <cc:Work
         rdf:about="">
        <dc:title>conceptual_idea</dc:title>
      </cc:Work>
    </rdf:RDF>
  </metadata>
</svg>
