<?xml version="1.0" encoding="UTF-8" standalone="no"?>
<svg
   data-name="Layer 1"
   width="1094"
   height="811.38"
   viewBox="0 0 1094 811.38"
   version="1.1"
   id="svg1964"
   sodipodi:docname="toy.svg"
   xmlns:inkscape="http://www.inkscape.org/namespaces/inkscape"
   xmlns:sodipodi="http://sodipodi.sourceforge.net/DTD/sodipodi-0.dtd"
   xmlns="http://www.w3.org/2000/svg"
   xmlns:svg="http://www.w3.org/2000/svg">
  <defs
     id="defs1968" />
  <sodipodi:namedview
     id="namedview1966"
     pagecolor="#ffffff"
     bordercolor="#000000"
     borderopacity="0.25"
     inkscape:showpageshadow="2"
     inkscape:pageopacity="0.0"
     inkscape:pagecheckerboard="0"
     inkscape:deskcolor="#d1d1d1"
     showgrid="false" />
  <title
     id="title1788">toy car</title>
  <g
     opacity="0.3"
     id="g1838">
    <rect
       x="631.64001"
       y="450.62"
       width="130.73"
       height="39.52"
       rx="7.4299998"
       fill="#f2f2f2"
       id="rect1790" />
    <rect
       x="768.45001"
       y="490.14001"
       width="130.73"
       height="39.52"
       rx="7.4299998"
       fill="#f2f2f2"
       id="rect1792" />
    <rect
       x="905.27002"
       y="529.66998"
       width="130.73"
       height="39.52"
       rx="7.4299998"
       fill="#f2f2f2"
       id="rect1794" />
    <rect
       x="631.64001"
       y="391.32999"
       width="130.73"
       height="39.52"
       rx="7.4299998"
       fill="#f2f2f2"
       id="rect1796" />
    <rect
       x="768.45001"
       y="430.85999"
       width="130.73"
       height="39.52"
       rx="7.4299998"
       fill="#f2f2f2"
       id="rect1798" />
    <rect
       x="905.27002"
       y="470.38"
       width="130.73"
       height="39.52"
       rx="7.4299998"
       fill="#f2f2f2"
       id="rect1800" />
    <rect
       x="631.64001"
       y="312.29001"
       width="130.73"
       height="39.52"
       rx="7.4299998"
       fill="#f2f2f2"
       id="rect1802" />
    <rect
       x="768.45001"
       y="351.81"
       width="130.73"
       height="39.52"
       rx="7.4299998"
       fill="#f2f2f2"
       id="rect1804" />
    <rect
       x="905.27002"
       y="391.32999"
       width="130.73"
       height="39.52"
       rx="7.4299998"
       fill="#f2f2f2"
       id="rect1806" />
    <rect
       x="631.64001"
       y="253"
       width="130.73"
       height="39.52"
       rx="7.4299998"
       fill="#f2f2f2"
       id="rect1808" />
    <rect
       x="768.45001"
       y="292.51999"
       width="130.73"
       height="39.52"
       rx="7.4299998"
       fill="#f2f2f2"
       id="rect1810" />
    <rect
       x="905.27002"
       y="332.04999"
       width="130.73"
       height="39.52"
       rx="7.4299998"
       fill="#f2f2f2"
       id="rect1812" />
    <rect
       x="631.64001"
       y="450.62"
       width="130.73"
       height="39.52"
       rx="7.4299998"
       fill="#f50057"
       opacity="0.1"
       id="rect1814" />
    <rect
       x="768.45001"
       y="490.14001"
       width="130.73"
       height="39.52"
       rx="7.4299998"
       fill="#f50057"
       opacity="0.1"
       id="rect1816" />
    <rect
       x="905.27002"
       y="529.66998"
       width="130.73"
       height="39.52"
       rx="7.4299998"
       fill="#f50057"
       opacity="0.1"
       id="rect1818" />
    <rect
       x="631.64001"
       y="391.32999"
       width="130.73"
       height="39.52"
       rx="7.4299998"
       fill="#f50057"
       opacity="0.1"
       id="rect1820" />
    <rect
       x="768.45001"
       y="430.85999"
       width="130.73"
       height="39.52"
       rx="7.4299998"
       fill="#f50057"
       opacity="0.1"
       id="rect1822" />
    <rect
       x="905.27002"
       y="470.38"
       width="130.73"
       height="39.52"
       rx="7.4299998"
       fill="#f50057"
       opacity="0.1"
       id="rect1824" />
    <rect
       x="631.64001"
       y="312.29001"
       width="130.73"
       height="39.52"
       rx="7.4299998"
       fill="#f50057"
       opacity="0.1"
       id="rect1826" />
    <rect
       x="768.45001"
       y="351.81"
       width="130.73"
       height="39.52"
       rx="7.4299998"
       fill="#f50057"
       opacity="0.1"
       id="rect1828" />
    <rect
       x="905.27002"
       y="391.32999"
       width="130.73"
       height="39.52"
       rx="7.4299998"
       fill="#f50057"
       opacity="0.1"
       id="rect1830" />
    <rect
       x="631.64001"
       y="253"
       width="130.73"
       height="39.52"
       rx="7.4299998"
       fill="#f50057"
       opacity="0.1"
       id="rect1832" />
    <rect
       x="768.45001"
       y="292.51999"
       width="130.73"
       height="39.52"
       rx="7.4299998"
       fill="#f50057"
       opacity="0.1"
       id="rect1834" />
    <rect
       x="905.27002"
       y="332.04999"
       width="130.73"
       height="39.52"
       rx="7.4299998"
       fill="#f50057"
       opacity="0.1"
       id="rect1836" />
  </g>
  <g
     opacity="0.3"
     id="g1888">
    <rect
       x="119.64"
       y="197.62"
       width="130.73"
       height="39.52"
       rx="7.4299998"
       fill="#f2f2f2"
       id="rect1840" />
    <rect
       x="256.45001"
       y="237.14"
       width="130.73"
       height="39.52"
       rx="7.4299998"
       fill="#f2f2f2"
       id="rect1842" />
    <rect
       x="393.26999"
       y="276.67001"
       width="130.73"
       height="39.52"
       rx="7.4299998"
       fill="#f2f2f2"
       id="rect1844" />
    <rect
       x="119.64"
       y="138.33"
       width="130.73"
       height="39.52"
       rx="7.4299998"
       fill="#f2f2f2"
       id="rect1846" />
    <rect
       x="256.45001"
       y="177.86"
       width="130.73"
       height="39.52"
       rx="7.4299998"
       fill="#f2f2f2"
       id="rect1848" />
    <rect
       x="393.26999"
       y="217.38"
       width="130.73"
       height="39.52"
       rx="7.4299998"
       fill="#f2f2f2"
       id="rect1850" />
    <rect
       x="119.64"
       y="59.290001"
       width="130.73"
       height="39.52"
       rx="7.4299998"
       fill="#f2f2f2"
       id="rect1852" />
    <rect
       x="256.45001"
       y="98.809998"
       width="130.73"
       height="39.52"
       rx="7.4299998"
       fill="#f2f2f2"
       id="rect1854" />
    <rect
       x="393.26999"
       y="138.33"
       width="130.73"
       height="39.52"
       rx="7.4299998"
       fill="#f2f2f2"
       id="rect1856" />
    <rect
       x="119.64"
       width="130.73"
       height="39.52"
       rx="7.4299998"
       fill="#f2f2f2"
       id="rect1858"
       y="0" />
    <rect
       x="256.45001"
       y="39.52"
       width="130.73"
       height="39.52"
       rx="7.4299998"
       fill="#f2f2f2"
       id="rect1860" />
    <rect
       x="393.26999"
       y="79.050003"
       width="130.73"
       height="39.52"
       rx="7.4299998"
       fill="#f2f2f2"
       id="rect1862" />
    <rect
       x="119.64"
       y="197.62"
       width="130.73"
       height="39.52"
       rx="7.4299998"
       fill="#f50057"
       opacity="0.1"
       id="rect1864" />
    <rect
       x="256.45001"
       y="237.14"
       width="130.73"
       height="39.52"
       rx="7.4299998"
       fill="#f50057"
       opacity="0.1"
       id="rect1866" />
    <rect
       x="393.26999"
       y="276.67001"
       width="130.73"
       height="39.52"
       rx="7.4299998"
       fill="#f50057"
       opacity="0.1"
       id="rect1868" />
    <rect
       x="119.64"
       y="138.33"
       width="130.73"
       height="39.52"
       rx="7.4299998"
       fill="#f50057"
       opacity="0.1"
       id="rect1870" />
    <rect
       x="256.45001"
       y="177.86"
       width="130.73"
       height="39.52"
       rx="7.4299998"
       fill="#f50057"
       opacity="0.1"
       id="rect1872" />
    <rect
       x="393.26999"
       y="217.38"
       width="130.73"
       height="39.52"
       rx="7.4299998"
       fill="#f50057"
       opacity="0.1"
       id="rect1874" />
    <rect
       x="119.64"
       y="59.290001"
       width="130.73"
       height="39.52"
       rx="7.4299998"
       fill="#f50057"
       opacity="0.1"
       id="rect1876" />
    <rect
       x="256.45001"
       y="98.809998"
       width="130.73"
       height="39.52"
       rx="7.4299998"
       fill="#f50057"
       opacity="0.1"
       id="rect1878" />
    <rect
       x="393.26999"
       y="138.33"
       width="130.73"
       height="39.52"
       rx="7.4299998"
       fill="#f50057"
       opacity="0.1"
       id="rect1880" />
    <rect
       x="119.64"
       width="130.73"
       height="39.52"
       rx="7.4299998"
       fill="#f50057"
       opacity="0.1"
       id="rect1882"
       y="0" />
    <rect
       x="256.45001"
       y="39.52"
       width="130.73"
       height="39.52"
       rx="7.4299998"
       fill="#f50057"
       opacity="0.1"
       id="rect1884" />
    <rect
       x="393.26999"
       y="79.050003"
       width="130.73"
       height="39.52"
       rx="7.4299998"
       fill="#f50057"
       opacity="0.1"
       id="rect1886" />
  </g>
  <g
     opacity="0.1"
     id="g1898">
    <path
       d="m 348.61,597.26 a 80.56,80.56 0 0 1 -1.74,16.87 c -0.22,1 -0.46,2.07 -0.7,3.07 -6.17,24.77 -23.6,42.89 -44.39,44 -0.69,0 -1.39,0.06 -2.11,0.06 -22,0 -40.58,-19 -46.71,-45.08 -0.18,-0.7 -0.33,-1.39 -0.48,-2.09 a 80.56,80.56 0 0 1 -1.74,-16.87 c 0,-35.39 21.9,-64 48.93,-64 27.03,0 48.94,28.65 48.94,64.04 z"
       transform="translate(-53,-45.06)"
       fill="#3f3d56"
       id="path1890" />
    <path
       d="m 348.61,597.26 a 80.56,80.56 0 0 1 -1.74,16.87 c -0.22,1 -0.46,2.07 -0.7,3.07 -0.74,0 -1.46,0 -2.19,-0.09 a 99.36,99.36 0 0 1 -16,-2.19 98.49,98.49 0 0 1 -14.27,3.26 100.29,100.29 0 0 1 -11.18,1 c -1.26,0 -2.52,0.07 -3.78,0.07 a 102.12,102.12 0 0 1 -13.4,-0.89 99,99 0 0 1 -21,-5.22 98.21,98.21 0 0 1 -11.35,3 c -0.18,-0.7 -0.33,-1.39 -0.48,-2.09 a 80.56,80.56 0 0 1 -1.74,-16.87 c 0,-35.39 21.9,-64 48.93,-64 27.03,0 48.9,28.69 48.9,64.08 z"
       transform="translate(-53,-45.06)"
       opacity="0.1"
       id="path1892" />
    <path
       d="M 453,477.93 A 99.07,99.07 0 0 0 442.35,433.11 L 384.8,451 435.31,421.3 a 99.37,99.37 0 0 0 -74.72,-42.59 99.69,99.69 0 0 0 -7.75,-10.27 l -82.73,25.73 67.79,-39.86 a 99.47,99.47 0 0 0 -156.52,53 l 70.81,81.51 -76.92,-55.52 a 99.48,99.48 0 0 0 89,175.52 100,100 0 0 0 63.73,1.75 99.52,99.52 0 0 0 121,-97.12 c 0,-2.21 -0.08,-4.4 -0.22,-6.58 A 99.47,99.47 0 0 0 453,477.93 Z"
       transform="translate(-53,-45.06)"
       fill="#f50057"
       id="path1894" />
    <path
       d="m 451.29,496.38 a 265,265 0 0 0 -92.09,-1.17 c -34.55,5.72 -69.87,18.29 -103.67,9.1 -19.83,-5.4 -37,-17.88 -56.35,-24.8 A 106.81,106.81 0 0 0 141,476 99.52,99.52 0 0 0 264.3,608.82 100,100 0 0 0 328,610.57 99.52,99.52 0 0 0 449,513.45 c 0,-2.21 -0.08,-4.4 -0.22,-6.58 a 98.49,98.49 0 0 0 2.51,-10.49 z"
       transform="translate(-53,-45.06)"
       opacity="0.1"
       id="path1896" />
  </g>
  <ellipse
     cx="547"
     cy="699.59998"
     rx="547"
     ry="99.5"
     fill="#f50057"
     opacity="0.1"
     id="ellipse1900" />
  <path
     d="m 726.68,711.07 a 19,19 0 0 1 29.42,-11 l 0.78,0.57 c 16.73,12.54 6.8,35.54 0,36.06 -6.8,0.52 -19.88,1.08 -19.88,1.08 0,0 -15.41,-6.36 -10.32,-26.71 z"
     fill="#192534"
     id="path1902" />
  <path
     d="m 877.62,695.44 v 4.18 c 0,0 -68,4.7 -75.26,4.7 h -13.59 c 0,0 -0.2,0.21 -0.53,0.59 -0.56,0.63 -1.51,1.74 -2.56,3.12 -2.14,2.78 -4.69,6.66 -5.28,9.88 -1,5.75 -4.7,7.84 -4.7,7.84 L 762.11,722.1 749,706.42 l -1.91,-1.84 -5.44,-5.19 -4.65,-4.45 0.23,-2.5 v -0.38 a 141.85,141.85 0 0 1 4.26,-15.88 c 0,-0.14 0.09,-0.29 0.14,-0.43 3.77,-11.32 10.06,-25.07 19.12,-29.16 0.69,-0.31 1.41,-0.61 2.18,-0.88 l 0.92,-0.32 c 17.38,-5.82 50.22,-3.51 50.22,-3.51 0,0 25.08,7.32 27.18,10.46 2.1,3.14 25.87,29 25.87,29 a 39,39 0 0 1 5.74,5.31 c 2.23,2.47 4.3,5.58 4.76,8.79 z"
     fill="#f50057"
     id="path1904" />
  <ellipse
     cx="734.92999"
     cy="718.44"
     rx="7.3200002"
     ry="11.5"
     fill="#ffffff"
     opacity="0.1"
     id="ellipse1906" />
  <path
     d="m 765.25,650.49 c 0,0 -6,9.2 -12.34,21 a 0.41,0.41 0 0 0 0,0.09 c -1.69,3.14 -3.41,6.45 -5.05,9.84 l -0.07,0.16 c 0,0 -3.47,-2.75 -6.2,-5.43 0,-0.14 0.09,-0.29 0.14,-0.43 3.77,-11.32 10.06,-25.07 19.12,-29.16 0.69,-0.31 1.41,-0.61 2.18,-0.88 z"
     opacity="0.1"
     id="path1908" />
  <path
     d="m 747.48,681.33 c 0,0 37.11,11 44.42,6.27 0,0 2.62,-33.45 -14.63,-35.54 0,0 -9.93,-2.62 -12,-1 -2.07,1.62 -17.79,30.27 -17.79,30.27 z"
     fill="#ffffff"
     opacity="0.1"
     id="path1910" />
  <path
     d="m 795.56,656.76 c 0,0 7.32,27.7 12.55,28.23 5.23,0.53 58,-0.53 55.92,-4.19 -2.08,-3.66 -25.09,-27.17 -25.09,-27.17 z"
     fill="#ffffff"
     opacity="0.1"
     id="path1912" />
  <path
     d="m 786.58,706.88 c 0,0 9.5,-12.49 26.23,0.06 16.73,12.55 6.79,35.54 0,36.06 -6.79,0.52 -19.81,1.05 -19.81,1.05 0,0 -20.63,-8.48 -6.42,-37.17 z"
     fill="#192534"
     id="path1914" />
  <path
     d="m 885.25,710.06 a 15.14,15.14 0 0 0 -20.47,-8.78 29.27,29.27 0 0 0 -5.28,3.21 c -14.89,11.16 -6,31.63 0,32.1 2.17,0.16 5.06,0.33 7.87,0.48 a 18.62,18.62 0 0 0 19.14,-22.74 39.18,39.18 0 0 0 -1.26,-4.27 z"
     fill="#192534"
     id="path1916" />
  <ellipse
     cx="790.85999"
     cy="724.71002"
     rx="7.3200002"
     ry="11.5"
     fill="#ffffff"
     opacity="0.1"
     id="ellipse1918" />
  <path
     d="m 811.24,702.76 c 0,0 -1,-15.16 15.16,-8.89 16.16,6.27 5.75,13.07 5.75,13.07 z"
     fill="#ffffff"
     opacity="0.1"
     id="path1920" />
  <path
     d="m 877.62,695.44 v 2.09 l -2.61,1 -5.33,-1 c 0,0 -1.14,-8.56 3.23,-11 2.18,2.59 4.25,5.7 4.71,8.91 z"
     fill="#ffffff"
     opacity="0.1"
     id="path1922" />
  <path
     d="m 877.62,695.54 v 4.08 c 0,0 -68,4.7 -75.26,4.7 h -0.06 c -3.76,-2 -7.52,-2.89 -10.68,-1.56 a 11.69,11.69 0 0 0 -2.69,1.56 c -0.24,0.19 -0.47,0.39 -0.69,0.59 a 14.26,14.26 0 0 0 -2.56,3.12 C 781,715.6 782,727.32 782,727.32 c -13.59,4.18 -27.7,-6.79 -27.7,-6.79 -2.56,-7.68 -4.95,-12.69 -7.14,-16 -2,-3 -3.82,-4.47 -5.44,-5.19 l -4.72,-4.4 0.23,-2.5 37.93,27.58 c 0,0 3.66,-23.52 12,-21.95 8.34,1.57 25.09,1.57 25.09,1.57 z"
     opacity="0.1"
     id="path1924" />
  <path
     d="m 734.93,692.3 c 0,0 -3.14,7.84 0,8.37 3.14,0.53 10.19,-6 19.34,21.43 0,0 14.11,11 27.7,6.79 0,0 -1.62,-19.86 9.65,-24.57 11.27,-4.71 30.07,18.82 30.07,18.82 v 5.23 l 44.43,-4.71 c 0,0 13.59,-10.45 13.07,-26.65 l -66.9,4.18 c 0,0 -16.73,0 -25.09,-1.57 -8.36,-1.57 -12,22 -12,22 z"
     fill="#f50057"
     id="path1926" />
  <rect
     x="518.81"
     y="549.34998"
     width="55.93"
     height="55.93"
     rx="27.959999"
     fill="#192534"
     id="rect1928" />
  <path
     d="m 532.13,649.28 c 3.75,-3.29 7.56,-6.64 10.26,-10.83 2.48,-3.84 3.94,-8.23 5.31,-12.59 q 5.87,-18.69 10.11,-37.85 c -15.39,-2.35 -26.88,-15.94 -41.93,-19.93 -0.36,-0.1 -11.87,69.06 -12.71,75.38 -0.69,5.22 -6.65,30.15 0.14,30.29 3.63,0.08 11.21,-9 13.89,-11.39 z"
     fill="#3f3d56"
     id="path1930" />
  <path
     d="m 532.13,649.28 c 3.75,-3.29 7.56,-6.64 10.26,-10.83 2.48,-3.84 3.94,-8.23 5.31,-12.59 q 5.87,-18.69 10.11,-37.85 c -15.39,-2.35 -26.88,-15.94 -41.93,-19.93 -0.36,-0.1 -11.87,69.06 -12.71,75.38 -0.69,5.22 -6.65,30.15 0.14,30.29 3.63,0.08 11.21,-9 13.89,-11.39 z"
     opacity="0.1"
     id="path1932" />
  <path
     d="m 341.94,474.78 c -1.7,0.26 -3.5,0.39 -4.9,1.38 -2,1.4 -2.51,4 -3.46,6.26 a 15.33,15.33 0 0 1 -6.05,7 c -2.29,1.4 -5.08,2.34 -6.45,4.64 a 10.23,10.23 0 0 0 -1.07,5 95.89,95.89 0 0 0 0.69,15.34 c 0.32,2.55 0.74,5.15 0.21,7.66 -0.61,2.93 -2.45,5.42 -4.2,7.85 -4.2,5.81 -8.31,12.19 -8.65,19.35 -0.17,3.6 0.63,7.29 -0.28,10.78 -1.61,6.19 -8.17,10.23 -9.45,16.49 -0.38,1.85 -0.28,3.81 -1,5.54 -1.26,3 -4.73,4.64 -5.62,7.73 -0.67,2.32 0.31,4.77 0.38,7.18 0.1,3.53 -1.75,6.79 -3.53,9.83 l -10.41,17.7 c -3.38,5.74 -6.84,11.74 -7.41,18.38 -0.51,5.89 1.32,11.72 3.33,17.28 4.47,12.35 11.11,25.43 23.36,30.18 7.21,2.8 15.24,2.2 22.95,1.56 10.56,-0.87 21.19,-1.76 31.38,-4.65 5.05,-1.43 10,-3.34 15.1,-4.36 3.4,-0.67 6.89,-1 10.17,-2.09 a 21,21 0 0 0 13.64,-16.5 c 4.36,1.72 8.4,-4 7.78,-8.64 -0.62,-4.64 -3.74,-8.57 -5,-13.07 -1.8,-6.21 0,-12.95 3,-18.67 3,-5.72 7.14,-10.78 10.41,-16.35 a 62.29,62.29 0 0 0 7.48,-20.16 c 1.75,-9.59 1.22,-19.44 0.68,-29.17 l -2.06,-37.19 c -0.38,-6.81 -0.81,-13.84 -3.81,-20 -3.29,-6.71 -9.29,-11.63 -15.28,-16.1 a 254.86,254.86 0 0 0 -27.75,-18.38 c -6.22,-3.48 -5.78,-2.13 -10.73,2 a 27.58,27.58 0 0 1 -13.45,6.2 z"
     fill="#3f3d56"
     id="path1934" />
  <path
     d="m 426,578.25 c -7.07,5.58 -14.23,11.24 -19.67,18.42 a 53.29,53.29 0 0 0 -10.68,30.19 93.06,93.06 0 0 0 1.07,15.27 c 1.07,8.25 3,17.44 9.95,22 4.38,2.87 10.4,3.59 13.39,7.89 0.94,1.35 1.49,3 2.59,4.19 2,2.16 5.12,2.63 8,2.79 a 74.15,74.15 0 0 0 12.9,-0.4 c 4.89,-0.59 9.86,-1.66 14.7,-0.74 9.42,1.77 16.45,10.66 26,11.85 7.93,1 15.36,-3.61 22,-8 6.85,-4.53 14,-9.38 17.71,-16.71 3.61,-7.12 3.41,-15.5 3.13,-23.49 -0.31,-8.87 -0.63,-17.85 -3,-26.41 a 46.42,46.42 0 0 1 -1.69,-6.86 c -0.71,-6 2,-11.9 4,-17.64 3.11,-8.73 4.47,-19.49 -1.71,-26.39 -2.61,-2.92 -6.24,-4.72 -9.92,-6 -16.25,-5.84 -34.19,-3.62 -50.86,-1 -15.91,2.41 -25.43,11.21 -37.91,21.04 z"
     fill="#3f3d56"
     id="path1936" />
  <path
     d="m 563.8,543.69 c -6.44,9.67 -12.9,19.41 -17.55,30 a 193.17,193.17 0 0 0 -8,23.6 c -6.42,22.19 -12.79,44.86 -25.61,64.07 -1.84,2.76 -3.88,5.63 -4.07,8.94 -0.18,3.1 1.3,6 2.73,8.76 3,5.84 6.14,11.74 10.42,16.76 4.28,5.02 9.4,8.82 14.56,12.7 10.71,8 22.61,16.48 36,15.88 2.77,-0.13 5.73,-0.77 7.58,-2.84 1.85,-2.07 2.11,-4.93 1.78,-7.59 -1,-8.23 -7.2,-14.7 -12.82,-20.8 -5.62,-6.1 -11.27,-13.23 -10.82,-21.55 0.35,-6.87 4.85,-12.73 9.16,-18.09 4.93,-6.14 9.87,-12.27 14.52,-18.62 20.11,-27.45 34.63,-58.66 46.14,-90.69 4.85,-13.52 9.26,-27.72 7.75,-42 -11,-2.7 -33,-11.72 -42.29,-2.41 -5.63,5.64 -9.61,14 -14,20.65 z"
     fill="#fbbebe"
     id="path1938" />
  <path
     d="m 656.68,449.8 a 171.6,171.6 0 0 0 -16.24,38.6 c -0.93,3.26 -1.76,6.7 -1.05,10 0.77,3.54 3.18,6.45 5,9.57 1.82,3.12 3.1,7.07 1.45,10.29 -7.8,0.61 -15.53,-1.52 -23.07,-3.63 l -23.64,-6.6 a 12.2,12.2 0 0 1 -5.35,-2.48 c -2.74,-2.59 -2.53,-6.94 -2,-10.66 4.63,-30.46 19.5,-58.54 25.07,-88.83 0.81,-4.37 1.66,-9.21 5.14,-12 10,-7.9 32.64,-1.21 37.82,10.23 5.79,12.7 3.42,34.1 -3.13,45.51 z"
     fill="#f50057"
     id="path1940" />
  <path
     d="m 530.13,345.7 c -0.89,0.46 -1.89,1 -2.16,1.94 a 3.52,3.52 0 0 0 0.94,2.83 l 10.09,14.2 c 9.95,14 19.92,28.09 31.43,40.86 a 221.9,221.9 0 0 0 28.44,26.46 c 2.88,2.24 5.95,4.57 7.36,7.94 a 76.53,76.53 0 0 1 3.12,-56.77 c 3.3,-7 7.66,-13.49 11.09,-20.45 a 2.91,2.91 0 0 0 -1.59,-4.72 c -8.74,-4.5 -18.3,-7.22 -27,-11.8 -6.83,-3.6 -13,-8.28 -19.13,-12.89 -5.47,-4.11 -12.75,-11.37 -19.5,-13.1 -7.29,-1.88 -7,4.77 -9.35,10.32 a 30.62,30.62 0 0 1 -13.74,15.18 z"
     fill="#fbbebe"
     id="path1942" />
  <path
     d="m 530.13,345.7 c -0.89,0.46 -1.89,1 -2.16,1.94 a 3.52,3.52 0 0 0 0.94,2.83 l 10.09,14.2 c 9.95,14 19.92,28.09 31.43,40.86 a 221.9,221.9 0 0 0 28.44,26.46 c 2.88,2.24 5.95,4.57 7.36,7.94 a 76.53,76.53 0 0 1 3.12,-56.77 c 3.3,-7 7.66,-13.49 11.09,-20.45 a 2.91,2.91 0 0 0 -1.59,-4.72 c -8.74,-4.5 -18.3,-7.22 -27,-11.8 -6.83,-3.6 -13,-8.28 -19.13,-12.89 -5.47,-4.11 -12.75,-11.37 -19.5,-13.1 -7.29,-1.88 -7,4.77 -9.35,10.32 a 30.62,30.62 0 0 1 -13.74,15.18 z"
     opacity="0.1"
     id="path1944" />
  <path
     d="m 592,402.29 c -4.57,-5.16 -10.74,-8.57 -16.15,-12.85 -7.78,-6.16 -13.93,-14.1 -19.87,-22.05 -10.9,-14.63 -21.89,-32.55 -16.46,-50 -5.77,-0.56 -10.75,4.18 -13.47,9.29 -2.72,5.11 -4.12,10.93 -7.51,15.62 -5.15,7.13 -13.91,10.45 -22.07,13.71 a 359.68,359.68 0 0 0 -51.82,25.75 c -6.65,4 -13.27,8.29 -18.35,14.15 -5.44,6.25 -8.85,14 -13.47,20.85 -9,13.47 -22.68,23.58 -37.86,29.3 -5,1.9 -10.36,3.38 -14.83,6.4 -9.58,6.47 -13.57,19.37 -11.3,30.71 2.27,11.34 10,21 19.29,27.86 9.29,6.86 19.87,10.91 30.59,14.91 q 13.48,4.95 27.13,9.44 a 155.77,155.77 0 0 0 20.49,5.56 c 12.79,2.35 25.94,1.77 38.87,3.2 11.82,1.3 23.43,4.29 35.3,5.12 11.87,0.83 24.44,-0.75 34.11,-7.66 7.69,-5.49 12.81,-13.78 17.54,-22 A 598.86,598.86 0 0 0 605,453.94 c 2.83,-6.67 29.09,-44.45 22.55,-49.33 -32.93,-24.57 -22,14.47 -25.14,11.47 -4.2,-4.02 -6.61,-9.5 -10.41,-13.79 z"
     fill="#f50057"
     id="path1946" />
  <path
     d="m 551.21,379.69 c -7.07,-14.22 -11.85,-29.44 -16.6,-44.58 -1.31,-4.2 -2.63,-8.74 -1.22,-12.9 1.7,-5 7.14,-9.27 5.54,-14.28 -12.72,4 -27.49,10.27 -30,23.38 -0.55,2.86 -0.45,5.91 -1.78,8.49 -2.59,5.06 -9.19,6.14 -14.8,7 -16.32,2.61 -32.54,9.19 -43.72,21.36 -1.88,2 -3.65,4.27 -6,5.77 a 26.06,26.06 0 0 1 -5.39,2.4 c -10.94,3.93 -22.19,8.83 -29.23,18.08 -3.63,4.76 -5.95,10.47 -10,14.89 -5.48,6 -13.55,9 -19.48,14.59 -4,3.72 -6.85,8.44 -9.49,13.21 -10.16,18.36 -17.61,39.89 -12.22,60.18 2.81,10.61 9,20.06 12.33,30.52 4.59,14.25 4.14,30.5 12.75,42.75 5.43,7.7 13.83,12.79 22.43,16.63 a 120.63,120.63 0 0 0 61,9.82 227.23,227.23 0 0 0 23,-3.88 c 18.13,-3.74 36.45,-7.81 52.92,-16.27 28.09,-14.43 48.3,-40.22 67.6,-65.22 3.67,-4.76 7.37,-9.56 10,-15 2.57,-5.19 4.12,-10.81 5.85,-16.33 5.85,-18.61 14.08,-37.14 13.31,-56.62 a 16.64,16.64 0 0 0 -1.35,-6.79 c -0.78,-1.6 -2,-3 -2.69,-4.61 -1.22,-2.88 -0.67,-6.21 -1.53,-9.22 -2.39,-8.4 -13.43,-10 -22.17,-9.93 l -2.8,49.29 c -0.43,7.4 -1.22,15.61 -6.73,20.57 a 14.63,14.63 0 0 1 -17.24,1.35 c -5.88,-3.81 -6.71,-10.46 -6.67,-16.83 0.06,-8 -0.59,-15.33 -3.14,-23 -5.28,-15.91 -15.06,-29.87 -22.48,-44.82 z"
     fill="#192534"
     id="path1948" />
  <path
     d="m 554.69,520.15 c 34.82,17.65 69.84,35.43 101,58.93 7.2,5.42 14.2,11.16 21.81,16 21.81,13.86 48.87,20.61 65.7,40.21 3.54,4.11 6.54,8.73 10.62,12.29 a 45.77,45.77 0 0 0 11.74,7 103.55,103.55 0 0 0 42.94,8.81 c 3.87,-0.05 7.85,-0.34 11.33,-2 9.37,-4.54 11.5,-16.7 12.45,-27.07 0.32,-3.51 0.39,-7.65 -2.37,-9.83 -1.49,-1.17 -3.46,-1.47 -5.33,-1.76 -30.41,-4.8 -58.47,-19.44 -83.88,-36.83 -25.41,-17.39 -48.7,-37.69 -73.76,-55.58 -8.81,-6.29 -17.83,-12.28 -26.85,-18.27 L 610.9,492.67 c -15.44,-10.25 -31.7,-20.81 -50.14,-22.74 a 6.65,6.65 0 0 0 -3.14,0.21 c -1.62,0.63 -2.52,2.31 -3.31,3.85 -5.41,10.54 -12,20.11 -18.63,29.87 -3.55,5.22 -3.95,6.57 2.17,9.36 5.51,2.52 11.35,4.15 16.84,6.93 z"
     fill="#fbbebe"
     id="path1950" />
  <path
     d="m 623.11,811.38 a 1.5,1.5 0 0 0 0,-3 1.5,1.5 0 0 0 0,3 z"
     id="path1952" />
  <circle
     cx="634.04999"
     cy="317.54999"
     r="95.650002"
     fill="#fbbebe"
     id="circle1954" />
  <path
     d="m 558.87,354.85 c 1.7,-8.59 11.56,-12.93 20.29,-13.51 a 50.35,50.35 0 0 1 44.92,22.84 70.75,70.75 0 0 0 4.06,-16.64 l 16,1.19 a 11.08,11.08 0 0 0 5.32,-0.48 c 2.06,-0.92 3.33,-3 4.4,-5 7,-13.07 11.68,-29.11 24.82,-36 v 18 a 23.92,23.92 0 0 0 16.83,-12.79 70.68,70.68 0 0 0 4.28,14.53 c 0.32,0.78 0.77,1.64 1.58,1.84 a 2.8,2.8 0 0 0 2.16,-0.79 95.61,95.61 0 0 0 16.51,-16 l 19,32.94 a 123.74,123.74 0 0 0 -53.82,-153.09 97.21,97.21 0 0 0 -13.71,-6.53 c -12.37,-4.66 -25.7,-6.15 -38.89,-7.05 -18.75,-1.28 -38.54,-1.23 -55,7.76 -8.85,4.83 -16.2,11.95 -23.3,19.11 -9.6,9.66 -19.2,19.87 -24.31,32.5 -3.53,8.72 -4.74,18.17 -5.81,27.51 -0.65,5.65 -1.25,11.49 0.36,16.94 1.12,3.77 3.23,7.16 4.65,10.83 2.36,6.1 2.73,12.76 3.64,19.24 a 116.1,116.1 0 0 0 13.79,40.74 c 1.5,2.67 3.42,5.51 6.41,6.19 2.99,0.68 6.58,-2.62 5,-5.22"
     fill="#192534"
     id="path1956" />
  <path
     d="m 558.87,354.85 c 1.7,-8.59 11.56,-12.93 20.29,-13.51 a 50.35,50.35 0 0 1 44.92,22.84 70.75,70.75 0 0 0 4.06,-16.64 l 16,1.19 a 11.08,11.08 0 0 0 5.32,-0.48 c 2.06,-0.92 3.33,-3 4.4,-5 7,-13.07 11.68,-29.11 24.82,-36 v 18 a 23.92,23.92 0 0 0 16.83,-12.79 70.68,70.68 0 0 0 4.28,14.53 c 0.32,0.78 0.77,1.64 1.58,1.84 a 2.8,2.8 0 0 0 2.16,-0.79 95.61,95.61 0 0 0 16.51,-16 l 19,32.94 a 123.74,123.74 0 0 0 -53.82,-153.09 97.21,97.21 0 0 0 -13.71,-6.53 c -12.37,-4.66 -25.7,-6.15 -38.89,-7.05 -18.75,-1.28 -38.54,-1.23 -55,7.76 -8.85,4.83 -16.2,11.95 -23.3,19.11 -9.6,9.66 -19.2,19.87 -24.31,32.5 -3.53,8.72 -4.74,18.17 -5.81,27.51 -0.65,5.65 -1.25,11.49 0.36,16.94 1.12,3.77 3.23,7.16 4.65,10.83 2.36,6.1 2.73,12.76 3.64,19.24 a 116.1,116.1 0 0 0 13.79,40.74 c 1.5,2.67 3.42,5.51 6.41,6.19 2.99,0.68 6.58,-2.62 5,-5.22"
     fill="none"
     stroke="#000000"
     stroke-miterlimit="10"
     id="path1958" />
  <path
     d="m 449.09,446.65 c 3.86,10.61 13.56,17.81 22.76,24.37 l 24,17.12 c 6.38,4.55 12.93,9.27 17.08,15.91 -6.07,2.3 -8.84,10.1 -6.85,16.28 1.99,6.18 7.7,10.61 13.92,12.61 6.22,2 12.82,1.93 19.31,1.56 7.45,-0.41 15.25,-1.31 21.4,-5.54 l -13.51,-8.32 c -3.56,-2.21 -7.65,-5.73 -6.35,-9.7 l 14.25,-0.14 c 1.5,0 3.13,-0.07 4.32,-1 1.19,-0.93 1.6,-2.36 2.1,-3.72 A 31.55,31.55 0 0 1 588.14,486 c 3.52,-0.26 7.57,-0.11 10,-2.73 1.58,-1.74 1.92,-4.24 2.2,-6.57 0.53,-4.44 1.05,-9 0.17,-13.35 -0.88,-4.35 -3.42,-8.67 -7.5,-10.5 -3,-1.36 -6.47,-1.23 -9.75,-1.67 -15.09,-2 -25.55,-15.68 -33.65,-28.57 -8.1,-12.89 -16.79,-27.15 -31.23,-31.95 a 50.82,50.82 0 0 0 -13.89,-2.13 c -10.41,-0.43 -21.13,0.42 -30.61,4.74 -17.67,8.05 -31.67,34.5 -24.79,53.38 z"
     fill="#f50057"
     id="path1960" />
  <path
     d="m 739.13,327.18 -19,-32.94 a 95.25,95.25 0 0 1 -16.51,16 2.77,2.77 0 0 1 -2.16,0.8 c -0.81,-0.2 -1.26,-1.06 -1.58,-1.84 a 70.77,70.77 0 0 1 -4.28,-14.54 23.91,23.91 0 0 1 -16.83,12.8 v -18 c -13.14,6.91 -17.78,22.95 -24.82,36 -1.07,2 -2.34,4.05 -4.4,5 a 11.08,11.08 0 0 1 -5.32,0.48 l -16,-1.19 a 70.75,70.75 0 0 1 -4.06,16.64 50.35,50.35 0 0 0 -44.92,-22.84 c -8.73,0.58 -18.59,4.92 -20.29,13.51 l -0.85,-0.94 c 1.61,2.61 -2,5.91 -5,5.23 -3,-0.68 -4.91,-3.52 -6.41,-6.19 a 116.16,116.16 0 0 1 -13.73,-40.77 c -0.91,-6.48 -1.28,-13.14 -3.64,-19.24 -1.42,-3.67 -3.53,-7.06 -4.65,-10.83 0,-0.13 -0.07,-0.25 -0.1,-0.38 -0.09,0.75 -0.18,1.5 -0.26,2.25 -0.65,5.66 -1.25,11.49 0.36,17 1.12,3.77 3.23,7.16 4.65,10.82 2.36,6.11 2.73,12.76 3.64,19.25 a 116,116 0 0 0 13.73,40.76 c 1.5,2.67 3.42,5.52 6.41,6.2 2.99,0.68 6.58,-2.62 5,-5.23 l 0.85,0.93 c 1.7,-8.58 11.56,-12.93 20.29,-13.5 a 50.32,50.32 0 0 1 44.92,22.83 70.55,70.55 0 0 0 4.06,-16.63 l 16,1.18 a 11,11 0 0 0 5.32,-0.48 c 2.06,-0.92 3.33,-3 4.4,-5 7,-13.08 11.68,-29.11 24.82,-36 v 18 a 23.91,23.91 0 0 0 16.83,-12.8 71,71 0 0 0 4.28,14.54 c 0.32,0.77 0.77,1.64 1.58,1.83 a 2.73,2.73 0 0 0 2.16,-0.79 95.25,95.25 0 0 0 16.51,-16 l 19,32.94 a 124.8,124.8 0 0 0 8.25,-55 123.7,123.7 0 0 1 -8.25,36.14 z"
     opacity="0.1"
     id="path1962" />
</svg>
