<?xml version="1.0" encoding="UTF-8" standalone="no"?>
<svg
   width="693"
   height="528"
   viewBox="0 0 693 528"
   version="1.1"
   id="svg112"
   sodipodi:docname="undraw_online_art_re_f1pk.svg"
   inkscape:version="1.2.1 (9c6d41e410, 2022-07-14)"
   xmlns:inkscape="http://www.inkscape.org/namespaces/inkscape"
   xmlns:sodipodi="http://sodipodi.sourceforge.net/DTD/sodipodi-0.dtd"
   xmlns="http://www.w3.org/2000/svg"
   xmlns:svg="http://www.w3.org/2000/svg">
  <defs
     id="defs116" />
  <sodipodi:namedview
     id="namedview114"
     pagecolor="#ffffff"
     bordercolor="#000000"
     borderopacity="0.25"
     inkscape:showpageshadow="2"
     inkscape:pageopacity="0.0"
     inkscape:pagecheckerboard="0"
     inkscape:deskcolor="#d1d1d1"
     showgrid="false"
     inkscape:zoom="1.6212121"
     inkscape:cx="346.96262"
     inkscape:cy="362.69159"
     inkscape:window-width="1920"
     inkscape:window-height="1015"
     inkscape:window-x="0"
     inkscape:window-y="37"
     inkscape:window-maximized="1"
     inkscape:current-layer="svg112" />
  <g
     id="g50">
    <circle
       cx="561.199"
       cy="146.51381"
       r="47"
       fill="#ff6584"
       id="circle2" />
    <path
       d="M423.199,338.92431c0,124.1688-79.50322,153.57596-190.57819,153.57596s-143.35528-2.92855-143.35528-127.09735S-54.69682,25.51381,56.37814,25.51381,423.199,214.75551,423.199,338.92431Z"
       fill="#f2f2f2"
       id="path4" />
    <path
       d="M547.67154,467.2042H178.94693c-14.68799,0-26.6377-11.94971-26.6377-26.6377V161.8419c0-14.68799,11.94971-26.6377,26.6377-26.6377h368.72461c14.68799,0,26.6377,11.94971,26.6377,26.6377V440.56651c0,14.68799-11.94971,26.6377-26.6377,26.6377ZM178.94693,137.2042c-13.58545,0-24.6377,11.05225-24.6377,24.6377V440.56651c0,13.58545,11.05225,24.6377,24.6377,24.6377h368.72461c13.58545,0,24.6377-11.05225,24.6377-24.6377V161.8419c0-13.58545-11.05225-24.6377-24.6377-24.6377H178.94693Z"
       fill="#3f3d56"
       id="path6" />
    <g
       id="g24">
      <ellipse
         cx="289.44797"
         cy="446.64954"
         rx="7.55666"
         ry="1.22626"
         transform="translate(-11.35404 7.5663) rotate(-1.46885)"
         fill="#e6e6e6"
         id="ellipse8" />
      <ellipse
         cx="337.32984"
         cy="442.66176"
         rx="7.55666"
         ry="1.22626"
         transform="translate(-11.23609 8.79237) rotate(-1.46885)"
         fill="#3f3d56"
         id="ellipse10" />
      <ellipse
         cx="270.17437"
         cy="438.40375"
         rx="7.55666"
         ry="1.22626"
         transform="translate(-11.14901 7.06955) rotate(-1.46885)"
         fill="#ff6584"
         id="ellipse12" />
      <ellipse
         cx="250.87937"
         cy="435.95686"
         rx="1.10248"
         ry="3.35719"
         transform="translate(-187.88958 681.88498) rotate(-89.35138)"
         fill="#e6e6e6"
         id="ellipse14" />
      <ellipse
         cx="239.16655"
         cy="429.48731"
         rx="1.10248"
         ry="3.35719"
         transform="translate(-193.00069 663.7766) rotate(-89.35138)"
         fill="#3f3d56"
         id="ellipse16" />
      <ellipse
         cx="302.86757"
         cy="438.30379"
         rx="1.10248"
         ry="3.35719"
         transform="translate(-138.8367 736.19021) rotate(-89.35138)"
         fill="#e6e6e6"
         id="ellipse18" />
      <ellipse
         cx="281.15935"
         cy="442.39837"
         rx="1.10248"
         ry="3.35719"
         transform="translate(-164.39348 718.53161) rotate(-89.35138)"
         fill="#ff6584"
         id="ellipse20" />
      <ellipse
         cx="317.13861"
         cy="445.42796"
         rx="1.10248"
         ry="3.35719"
         transform="translate(-131.85092 757.50387) rotate(-89.35138)"
         fill="#3f3d56"
         id="ellipse22" />
    </g>
    <g
       id="g42">
      <ellipse
         cx="440.44797"
         cy="444.64954"
         rx="7.55666"
         ry="1.22626"
         transform="translate(-11.25316 11.43629) rotate(-1.46885)"
         fill="#e6e6e6"
         id="ellipse26" />
      <ellipse
         cx="488.32984"
         cy="440.66176"
         rx="7.55666"
         ry="1.22626"
         transform="translate(-11.1352 12.66236) rotate(-1.46885)"
         fill="#3f3d56"
         id="ellipse28" />
      <ellipse
         cx="421.17437"
         cy="436.40375"
         rx="7.55666"
         ry="1.22626"
         transform="translate(-11.04812 10.93953) rotate(-1.46885)"
         fill="#ff6584"
         id="ellipse30" />
      <ellipse
         cx="401.87937"
         cy="433.95686"
         rx="1.10248"
         ry="3.35719"
         transform="translate(-36.59908 830.89795) rotate(-89.35138)"
         fill="#e6e6e6"
         id="ellipse32" />
      <ellipse
         cx="390.16655"
         cy="427.48731"
         rx="1.10248"
         ry="3.35719"
         transform="translate(-41.71018 812.78957) rotate(-89.35138)"
         fill="#3f3d56"
         id="ellipse34" />
      <ellipse
         cx="453.86757"
         cy="436.30379"
         rx="1.10248"
         ry="3.35719"
         transform="translate(12.45381 885.20318) rotate(-89.35138)"
         fill="#e6e6e6"
         id="ellipse36" />
      <ellipse
         cx="432.15935"
         cy="440.39837"
         rx="1.10248"
         ry="3.35719"
         transform="translate(-13.10298 867.54458) rotate(-89.35138)"
         fill="#ff6584"
         id="ellipse38" />
      <ellipse
         cx="468.13861"
         cy="443.42796"
         rx="1.10248"
         ry="3.35719"
         transform="translate(19.43958 906.51683) rotate(-89.35138)"
         fill="#3f3d56"
         id="ellipse40" />
    </g>
    <path
       d="M253.4603,390.58159c-2.55576,.16004-3.96822-3.01527-2.03464-4.86593l.19236-.76476c-.02533-.06125-.05078-.12243-.07643-.18358-2.58461-6.16299-11.34412-6.12047-13.90674,.05167-2.27452,5.4781-5.17037,10.96553-5.8834,16.75771-.31965,2.55684-.17582,5.16164,.39152,7.67061-5.32952-11.64185-8.13413-24.35434-8.13413-37.13874,0-3.21216,.17582-6.42428,.53535-9.6283,.29566-2.62085,.70315-5.22564,1.23055-7.80653,2.85245-13.95104,9.02901-27.23882,17.93812-38.33731,4.2828-2.34119,7.85444-6.00074,10.0118-10.38735,.77504-1.58214,1.38233-3.28404,1.66998-5.0179-.48739,.06393-1.83779-7.3591-1.47018-7.81452-.67924-1.03071-1.89496-1.54307-2.6368-2.54885-3.68944-5.0021-8.77254-4.12872-11.42613,2.66876-5.6687,2.861-5.72357,7.60577-2.24528,12.16916,2.2129,2.90325,2.51695,6.83168,4.45862,9.93984-.1998,.25572-.40756,.50344-.6073,.75916-3.66313,4.69837-6.83137,9.74838-9.50223,15.05379,.75484-5.89628-.35959-12.99973-2.25945-17.5787-2.16269-5.21725-6.21632-9.61123-9.78603-14.12153-4.2878-5.41757-13.08034-3.05324-13.83575,3.81439-.00731,.0665-.01443,.13292-.02142,.19942,.53022,.29911,1.04967,.61691,1.55706,.95247,2.89419,1.91408,1.89396,6.40059-1.53532,6.92992l-.07765,.01197c.19179,1.90967,.51938,3.80339,.99876,5.66515-4.57949,17.71009,5.3073,24.16047,19.42432,24.45023,.31164,.15979,.61531,.31957,.92695,.47144-1.4303,4.02707-2.57294,8.15803-3.41986,12.34493-.75907,3.69947-1.28647,7.4389-1.58207,11.19438-.36761,4.73818-.33561,9.50044,.06393,14.23066l-.02398-.16778c-1.01472-5.20962-3.84331-10.07573-7.95036-13.44763-6.11822-5.0259-14.76211-6.87666-21.36259-10.9165-3.17728-1.94467-7.24874,.56838-6.69422,4.25202,.00885,.05879,.01783,.11763,.02699,.17642,.98279,.39945,1.9416,.86294,2.86848,1.38225,.53022,.29918,1.04966,.61691,1.55706,.95247,2.89418,1.91415,1.89395,6.40066-1.53533,6.93l-.07771,.01193c-.05591,.00799-.10388,.01602-.15972,.02405,1.68594,4.00303,4.03503,7.71855,6.97545,10.92265,2.86344,15.46021,15.16196,16.92704,28.31753,12.42488h.00802c1.43825,6.26442,3.5397,12.38496,6.24043,18.21781h22.2928c.07996-.24769,.15184-.50341,.22378-.75113-2.06151,.12793-4.13898,.00803-6.16855-.36745,1.65401-2.02957,3.30796-4.07513,4.96198-6.10463,.03995-.03996,.07195-.07991,.10388-.11987,.83897-1.03867,1.68595-2.06946,2.52491-3.10816l.00045-.00127c.05252-3.18869-.32971-6.36689-1.08711-9.45126l-.00071-.00043Z"
       fill="#003198"
       id="path44" />
    <path
       d="M472.9377,390.58159c2.55576,.16004,3.96822-3.01527,2.03464-4.86593l-.19236-.76476c.02533-.06125,.05078-.12243,.07643-.18358,2.58461-6.16299,11.34412-6.12047,13.90674,.05167,2.27452,5.4781,5.17037,10.96553,5.8834,16.75771,.31965,2.55684,.17582,5.16164-.39152,7.67061,5.32952-11.64185,8.13413-24.35434,8.13413-37.13874,0-3.21216-.17582-6.42428-.53535-9.6283-.29566-2.62085-.70315-5.22564-1.23055-7.80653-2.85245-13.95104-9.02901-27.23882-17.93812-38.33731-4.2828-2.34119-7.85444-6.00074-10.0118-10.38735-.77504-1.58214-1.38233-3.28404-1.66998-5.0179,.48739,.06393,1.83779-7.3591,1.47018-7.81452,.67924-1.03071,1.89496-1.54307,2.6368-2.54885,3.68944-5.0021,8.77254-4.12872,11.42613,2.66876,5.6687,2.861,5.72357,7.60577,2.24528,12.16916-2.2129,2.90325-2.51695,6.83168-4.45862,9.93984,.1998,.25572,.40756,.50344,.6073,.75916,3.66313,4.69837,6.83137,9.74838,9.50223,15.05379-.75484-5.89628,.35959-12.99973,2.25945-17.5787,2.16269-5.21725,6.21632-9.61123,9.78603-14.12153,4.2878-5.41757,13.08034-3.05324,13.83575,3.81439,.00731,.0665,.01443,.13292,.02142,.19942-.53022,.29911-1.04967,.61691-1.55706,.95247-2.89419,1.91408-1.89396,6.40059,1.53532,6.92992l.07765,.01197c-.19179,1.90967-.51938,3.80339-.99876,5.66515,4.57949,17.71009-5.3073,24.16047-19.42432,24.45023-.31164,.15979-.61531,.31957-.92695,.47144,1.4303,4.02707,2.57294,8.15803,3.41986,12.34493,.75907,3.69947,1.28647,7.4389,1.58207,11.19438,.36761,4.73818,.33561,9.50044-.06393,14.23066l.02398-.16778c1.01472-5.20962,3.84331-10.07573,7.95036-13.44763,6.11822-5.0259,14.76211-6.87666,21.36259-10.9165,3.17728-1.94467,7.24874,.56838,6.69422,4.25202-.00885,.05879-.01783,.11763-.02699,.17642-.98279,.39945-1.9416,.86294-2.86848,1.38225-.53022,.29918-1.04966,.61691-1.55706,.95247-2.89418,1.91415-1.89395,6.40066,1.53533,6.93l.07771,.01193c.05591,.00799,.10388,.01602,.15972,.02405-1.68594,4.00303-4.03503,7.71855-6.97545,10.92265-2.86344,15.46021-15.16196,16.92704-28.31753,12.42488h-.00802c-1.43825,6.26442-3.5397,12.38496-6.24043,18.21781h-22.2928c-.07996-.24769-.15184-.50341-.22378-.75113,2.06151,.12793,4.13898,.00803,6.16855-.36745-1.65401-2.02957-3.30796-4.07513-4.96198-6.10463-.03995-.03996-.07195-.07991-.10388-.11987-.83897-1.03867-1.68595-2.06946-2.52491-3.10816l-.00045-.00127c-.05252-3.18869,.32971-6.36689,1.08711-9.45126l.00071-.00043Z"
       fill="#003198"
       id="path46" />
    <path
       d="M41.87185,410.60592c0,.66003,.53003,1.19,1.19006,1.19H678.35189c.65997,0,1.19-.52997,1.19-1.19,0-.65997-.53003-1.19-1.19-1.19H43.06191c-.66003,0-1.19006,.53003-1.19006,1.19Z"
       fill="#3f3d56"
       id="path48" />
  </g>
  <path
     d="M89.95454,87h-27c-2.75684,0-5-2.24316-5-5s2.24316-5,5-5h27c2.75684,0,5,2.24316,5,5s-2.24316,5-5,5Z"
     fill="#e6e6e6"
     id="path52" />
  <g
     id="g60">
    <circle
       cx="509.5"
       cy="81.5"
       r="4.5"
       fill="#e6e6e6"
       id="circle54" />
    <circle
       cx="523.5"
       cy="81.5"
       r="4.5"
       fill="#e6e6e6"
       id="circle56" />
    <circle
       cx="537.5"
       cy="81.5"
       r="4.5"
       fill="#e6e6e6"
       id="circle58" />
  </g>
  <path
     d="M693,283.5v221.81c0,12.51001-10.17999,22.69-22.69,22.69h-170.14001l1.58002-2,189.25-239.96002,2-2.53998Z"
     fill="#f2f2f2"
     id="path62" />
  <path
     d="M670.31,0H22.69C10.17999,0,0,10.17999,0,22.69V505.31c0,12.51001,10.17999,22.69,22.69,22.69H670.31c12.51001,0,22.69-10.17999,22.69-22.69V22.69c0-12.51001-10.17999-22.69-22.69-22.69Zm20.69,505.31c0,11.42677-9.26323,20.69-20.69,20.69H22.69c-11.42677,0-20.69-9.26323-20.69-20.69V157.67554C2,71.69831,71.69831,2,157.67554,2H670.31c11.42677,0,20.69,9.26323,20.69,20.69V505.31Z"
     fill="#e6e6e6"
     id="path64" />
  <path
     d="M160.95214,182.13032H53.58329c-3.32953,0-6.03599,2.70647-6.03599,6.03599s2.70647,6.03599,6.03599,6.03599h107.36885c3.32953,0,6.03599-2.70647,6.03599-6.03599s-2.70647-6.03599-6.03599-6.03599Z"
     fill="#e6e6e6"
     id="path94" />
  <path
     d="M114.15787,148.28587H53.58329c-3.32953,0-6.03599,2.70647-6.03599,6.03599s2.70647,6.03599,6.03599,6.03599h60.57457c3.32953,0,6.03599-2.70647,6.03599-6.03599s-2.70647-6.03599-6.03599-6.03599Z"
     fill="#e6e6e6"
     id="path96" />
  <path
     d="M160.95214,363.13032H53.58329c-3.32953,0-6.03599,2.70647-6.03599,6.03599s2.70647,6.03599,6.03599,6.03599h107.36885c3.32953,0,6.03599-2.70647,6.03599-6.03599s-2.70647-6.03599-6.03599-6.03599Z"
     fill="#e6e6e6"
     id="path98" />
  <path
     d="M114.15787,329.28587H53.58329c-3.32953,0-6.03599,2.70647-6.03599,6.03599s2.70647,6.03599,6.03599,6.03599h60.57457c3.32953,0,6.03599-2.70647,6.03599-6.03599s-2.70647-6.03599-6.03599-6.03599Z"
     fill="#e6e6e6"
     id="path100" />
  <path
     d="M624.46466,509.21066c2.06592,.12937,3.20768-2.43737,1.64468-3.93333l-.1555-.61819c.02047-.04951,.04105-.09897,.06178-.14839,2.08924-4.9818,9.16992-4.94742,11.24139,.04177,1.83859,4.42817,4.17942,8.86389,4.75579,13.54594,.25838,2.0668,.14213,4.17236-.31648,6.20047,4.30807-9.41059,6.57515-19.68661,6.57515-30.02077,0-2.59652-.14213-5.19301-.43275-7.78295-.239-2.11854-.56839-4.2241-.99471-6.31034-2.30575-11.2772-7.29852-22.01825-14.50012-30.98962-3.46197-1.89248-6.34906-4.85065-8.09295-8.39652-.62649-1.27891-1.11739-2.65462-1.34991-4.05618,.39398,.05168,1.48556-5.94866,1.18841-6.3168,.54906-.83317,1.53178-1.24733,2.13144-2.06034,2.98232-4.04341,7.0912-3.33741,9.23621,2.15727,4.58224,2.31266,4.62659,6.14806,1.81495,9.83683-1.78878,2.34682-2.03456,5.52233-3.60408,8.03478,.16151,.20671,.32944,.40695,.4909,.61366,2.96106,3.79788,5.52208,7.88002,7.68104,12.16859-.61017-4.76621,.29067-10.50822,1.82641-14.20959,1.74819-4.21732,5.02491-7.76915,7.91045-11.41501,3.46601-4.37924,10.57337-2.46806,11.18401,3.08332,.00591,.05375,.01166,.10745,.01731,.1612-.4286,.24178-.84849,.49867-1.25864,.76992-2.33949,1.54723-1.53096,5.17386,1.24107,5.60174l.06277,.00967c-.15503,1.54366-.41984,3.07444-.80734,4.57937,3.70179,14.31579-4.29011,19.5299-15.70147,19.76412-.25191,.12916-.49738,.25832-.74929,.38109,1.15617,3.25525,2.07982,6.59447,2.76441,9.97891,.61359,2.99043,1.03991,6.01317,1.27885,9.04888,.29715,3.83006,.27129,7.67959-.05168,11.50323l.01939-.13562c.82024-4.21115,3.10671-8.14462,6.4266-10.87028,4.94561-4.06264,11.93282-5.55869,17.26826-8.82425,2.56833-1.57196,5.85945,.45945,5.41121,3.43708l-.02182,.14261c-.79443,.32289-1.56947,.69755-2.31871,1.11733-.4286,.24184-.84848,.49867-1.25864,.76992-2.33949,1.54729-1.53096,5.17392,1.24107,5.6018l.06282,.00965c.0452,.00646,.08397,.01295,.12911,.01944-1.36282,3.23581-3.26168,6.23922-5.63854,8.82922-2.31463,12.49713-12.25603,13.68282-22.89022,10.04354h-.00648c-1.16259,5.06378-2.86128,10.01127-5.0444,14.72621h-18.02019c-.06463-.20022-.12274-.40692-.18089-.60717,1.6664,.10341,3.34571,.00649,4.98629-.29702-1.33701-1.64059-2.67396-3.29409-4.01097-4.93462-.03229-.0323-.05816-.0646-.08397-.09689-.67817-.8396-1.36282-1.67283-2.04099-2.51246l-.00036-.00102c-.04245-2.57755,.26652-5.14662,.87876-7.63984l.00057-.00035Z"
     fill="#fff"
     id="path102" />
</svg>
